<svg width="444" height="104" viewBox="0 0 444 104" fill="none" xmlns="http://www.w3.org/2000/svg">
<path d="M20.0965 103.296C15.4031 103.296 12.1605 102.357 10.3685 100.48C8.57646 98.6882 7.6378 96.3415 7.55246 93.4402C7.55246 90.9655 8.0218 88.0215 8.96046 84.6082C9.98446 81.1095 11.0085 77.7815 12.0325 74.6242C14.0805 68.5655 16.2138 62.5922 18.4325 56.7042C20.6511 50.8162 22.8698 45.1415 25.0885 39.6802C27.3925 34.2188 29.5685 29.0135 31.6165 24.0642C33.7498 19.1148 35.7125 14.5495 37.5045 10.3681C31.7018 10.4535 26.6671 10.6242 22.4005 10.8801C18.2191 11.1362 14.3791 11.4775 10.8805 11.9042C7.3818 12.2455 3.75513 12.7575 0.000461578 13.4402C0.427128 9.85616 2.09113 7.12549 4.99246 5.24815C7.97913 3.28549 11.9471 1.92015 16.8965 1.15215C21.8458 0.384153 27.5205 0.000152588 33.9205 0.000152588C37.2485 0.000152588 40.3631 0.0854848 43.2645 0.256149C46.2511 0.341487 49.0671 0.512154 51.7125 0.76815C54.4431 1.02415 57.0885 1.28015 59.6485 1.53616C65.0245 2.04815 69.2911 2.38949 72.4485 2.56015C75.6911 2.73082 77.9951 2.81615 79.3605 2.81615C76.8005 5.20549 73.5578 6.95482 69.6325 8.06416C65.7925 9.08815 61.7391 9.72815 57.4725 9.98415C53.2058 10.2402 49.1525 10.3681 45.3125 10.3681C41.2165 20.4375 37.4618 30.8908 34.0485 41.7282C30.6351 52.5655 27.4778 63.2748 24.5765 73.8562C23.4671 77.9522 22.5285 81.4508 21.7605 84.3522C21.0778 87.1682 20.5658 89.7708 20.2245 92.1602C19.8831 94.4642 19.7125 96.9388 19.7125 99.5842C19.7125 100.011 19.7125 100.48 19.7125 100.992C19.7978 101.589 19.9258 102.357 20.0965 103.296ZM64.4055 97.0242C62.5281 97.0242 61.1628 95.5735 60.3095 92.6722C59.5415 89.7708 59.1575 86.4002 59.1575 82.5602C59.1575 78.6348 59.7975 73.8988 61.0775 68.3522C62.4428 62.8055 64.2348 56.9602 66.4535 50.8162C68.7575 44.6722 71.2748 38.6562 74.0055 32.7682C76.8215 26.8802 79.6801 21.5468 82.5815 16.7682C85.5681 11.9042 88.3841 8.02149 91.0295 5.12016C93.7601 2.21882 96.1495 0.76815 98.1975 0.76815C99.9895 0.76815 101.355 1.74948 102.293 3.71215C103.232 5.67482 103.701 7.72282 103.701 9.85616C103.701 12.1602 103.147 15.0188 102.037 18.4322C101.013 21.7602 99.5628 25.3442 97.6855 29.1842C95.8081 33.0242 93.5895 36.8215 91.0295 40.5762C88.5548 44.2455 85.8241 47.6162 82.8375 50.6882C79.9361 53.7602 76.9068 56.2348 73.7495 58.1122C72.6401 61.0135 71.7441 63.7442 71.0615 66.3042C70.4641 68.7788 70.0375 71.1255 69.7815 73.3442C69.5255 75.5628 69.3975 77.7388 69.3975 79.8722C69.3975 80.2988 69.3975 80.7682 69.3975 81.2802C69.4828 81.7068 69.5255 82.1335 69.5255 82.5602C69.8668 82.0482 70.4215 80.7255 71.1895 78.5922C71.9575 76.4588 72.9815 73.9842 74.2615 71.1682C75.6268 68.2668 77.2908 65.4508 79.2535 62.7202C81.2161 59.9042 83.5201 57.6002 86.1655 55.8082C88.8108 53.9308 91.8401 52.9922 95.2535 52.9922C98.1548 52.9922 100.416 53.6748 102.037 55.0402C103.659 56.3202 104.811 57.9415 105.493 59.9042C106.176 61.7815 106.517 63.7015 106.517 65.6642C106.517 68.3948 106.048 70.9548 105.109 73.3442C104.256 75.7335 103.36 77.9948 102.421 80.1282C101.568 82.1762 101.141 84.1388 101.141 86.0162C101.141 87.5522 101.483 88.6188 102.165 89.2162C102.848 89.8135 103.659 90.1122 104.597 90.1122C106.475 90.1122 108.651 89.1735 111.125 87.2962C113.685 85.4188 116.203 82.9442 118.677 79.8722C121.237 76.7148 123.413 73.2588 125.205 69.5042L127.253 71.6802C125.291 75.9468 122.987 79.8722 120.341 83.4562C117.696 87.0402 114.795 89.8988 111.637 92.0322C108.48 94.1655 105.067 95.2322 101.397 95.2322C98.1548 95.2322 95.6801 94.3788 93.9735 92.6722C92.2668 90.9655 91.4135 88.8322 91.4135 86.2722C91.4135 84.4802 91.7121 82.5175 92.3095 80.3842C92.9921 78.1655 93.6321 75.9468 94.2295 73.7282C94.8268 71.5095 95.1255 69.5042 95.1255 67.7122C95.1255 65.6642 94.6561 64.2562 93.7175 63.4882C92.8641 62.7202 91.7975 62.3362 90.5175 62.3362C88.3841 62.3362 86.4641 63.1895 84.7575 64.8962C83.0508 66.5175 81.5148 68.6508 80.1495 71.2962C78.7841 73.9415 77.5041 76.7575 76.3095 79.7442C75.1148 82.6455 73.9201 85.4188 72.7255 88.0642C71.5308 90.7095 70.2508 92.8428 68.8855 94.4642C67.6055 96.1708 66.1121 97.0242 64.4055 97.0242ZM76.4375 49.9202C78.6561 47.9575 80.7895 45.6108 82.8375 42.8802C84.8855 40.1495 86.7628 37.3335 88.4695 34.4322C90.2615 31.4455 91.7975 28.5868 93.0775 25.8562C94.4428 23.0402 95.5095 20.5228 96.2775 18.3042C97.0455 16.0855 97.4721 14.3788 97.5575 13.1842C97.5575 13.0988 97.5575 13.0562 97.5575 13.0562C97.5575 12.9708 97.5575 12.8855 97.5575 12.8002C97.0455 12.8002 95.9361 13.8668 94.2295 16.0002C92.6081 18.0482 90.6881 20.8642 88.4695 24.4482C86.3361 27.9468 84.1601 31.9148 81.9415 36.3522C79.8081 40.7895 77.9735 45.3122 76.4375 49.9202ZM141.735 97.7922C136.274 97.7922 132.05 96.2988 129.063 93.3122C126.162 90.4108 124.711 86.7415 124.711 82.3042C124.711 78.5495 125.65 74.5815 127.527 70.4002C129.49 66.1335 132.093 62.1655 135.335 58.4962C138.578 54.7415 142.162 51.7122 146.087 49.4082C150.013 47.1042 153.938 45.9522 157.863 45.9522C160.082 45.9522 162.173 46.5495 164.135 47.7442C166.183 48.8535 167.207 51.1148 167.207 54.5282C167.207 57.7708 166.269 60.8002 164.391 63.6162C162.514 66.4322 159.997 68.9495 156.839 71.1682C153.682 73.3868 150.183 75.2215 146.343 76.6722C142.589 78.0375 138.791 78.9335 134.951 79.3602C134.866 79.7015 134.781 80.0855 134.695 80.5122C134.695 80.8535 134.695 81.4508 134.695 82.3042C134.695 82.7308 134.738 83.4988 134.823 84.6082C134.994 85.6322 135.378 86.7415 135.975 87.9362C136.573 89.1308 137.554 90.1548 138.919 91.0082C140.285 91.8615 142.162 92.2882 144.551 92.2882C148.135 92.2882 151.719 91.3068 155.303 89.3442C158.973 87.2962 162.386 84.6082 165.543 81.2802C168.786 77.9522 171.474 74.2402 173.607 70.1442L176.167 72.1922C173.863 77.3122 170.877 81.7922 167.207 85.6322C163.623 89.4722 159.613 92.4588 155.175 94.5922C150.823 96.7255 146.343 97.7922 141.735 97.7922ZM136.359 74.6242C138.578 74.3682 141.053 73.6002 143.783 72.3202C146.514 71.0402 149.117 69.4188 151.591 67.4562C154.151 65.4935 156.242 63.3602 157.863 61.0562C159.485 58.6668 160.295 56.2775 160.295 53.8882C160.295 52.9495 160.125 52.3095 159.783 51.9682C159.442 51.6268 158.887 51.4562 158.119 51.4562C156.157 51.4562 154.109 52.1815 151.975 53.6322C149.842 54.9975 147.751 56.8322 145.703 59.1362C143.655 61.3548 141.821 63.8295 140.199 66.5602C138.578 69.2908 137.298 71.9788 136.359 74.6242ZM196.752 103.296C191.547 103.296 187.622 102.443 184.976 100.736C182.331 99.0295 180.966 96.2135 180.88 92.2882C180.88 91.4348 181.35 91.0082 182.288 91.0082C183.056 91.0082 184.208 91.2215 185.744 91.6482C187.366 91.9895 190.395 92.1602 194.832 92.1602C202.342 92.1602 209.254 91.3922 215.568 89.8562C221.883 88.2348 227.344 86.1015 231.952 83.4562C236.646 80.7255 240.272 77.6962 242.832 74.3682C245.392 70.9548 246.672 67.4135 246.672 63.7442C246.672 60.4162 245.648 57.7708 243.6 55.8082C241.638 53.7602 238.992 52.2242 235.664 51.2002C232.422 50.0908 228.838 49.3655 224.912 49.0242C221.072 48.6828 217.275 48.5122 213.52 48.5122C211.899 48.5122 210.278 48.5548 208.656 48.6402C207.035 48.6402 205.499 48.6402 204.048 48.6402C202.171 55.1255 200.336 61.8242 198.544 68.7362C196.752 75.6482 194.875 82.4322 192.912 89.0882C190.352 89.0882 188.134 88.4055 186.256 87.0402C184.379 85.6748 183.44 84.0108 183.44 82.0482C183.44 81.2802 183.568 80.2988 183.824 79.1042C184.166 77.8242 184.635 76.3308 185.232 74.6242C185.744 73.0028 186.598 70.3148 187.792 66.5602C189.072 62.8055 190.566 58.3682 192.272 53.2482C193.979 48.1282 195.856 42.7522 197.904 37.1202C200.038 31.4028 202.214 25.8135 204.432 20.3521C206.736 14.8908 208.998 9.98415 211.216 5.63215C207.803 6.40015 204.987 7.29615 202.768 8.32015C200.55 9.34415 198.8 10.2402 197.52 11.0082C196.24 11.7762 195.259 12.1602 194.576 12.1602C194.064 12.1602 193.382 11.8615 192.528 11.2642C191.76 10.6668 191.035 9.98415 190.352 9.21616C189.755 8.44816 189.456 7.76549 189.456 7.16815C194.064 5.29082 198.843 3.62682 203.792 2.17616C208.742 0.725487 214.715 0.000152588 221.712 0.000152588C224.784 0.000152588 228.155 0.256152 231.824 0.76815C235.494 1.19482 238.992 2.13348 242.32 3.58415C245.648 4.94948 248.379 7.04015 250.512 9.85616C252.731 12.5868 253.84 16.2562 253.84 20.8642C253.84 24.5335 253.03 27.7335 251.408 30.4642C249.872 33.1095 247.782 35.4135 245.136 37.3762C242.491 39.2535 239.59 40.8322 236.432 42.1122C233.275 43.3068 230.16 44.2882 227.088 45.0562C232.379 45.7388 236.774 46.8482 240.272 48.3842C243.856 49.8348 246.672 51.5415 248.72 53.5042C250.854 55.4668 252.347 57.5148 253.2 59.6482C254.139 61.6962 254.608 63.7015 254.608 65.6642C254.608 70.6988 253.286 75.2215 250.64 79.2322C247.995 83.2428 244.496 86.7415 240.144 89.7282C235.878 92.7148 231.142 95.1895 225.936 97.1522C220.816 99.2002 215.696 100.736 210.576 101.76C205.456 102.784 200.848 103.296 196.752 103.296ZM205.328 43.7762C210.107 43.6055 214.8 43.0508 219.408 42.1122C224.016 41.1735 228.155 39.8082 231.824 38.0162C235.579 36.1388 238.566 33.7495 240.784 30.8482C243.003 27.8615 244.112 24.1922 244.112 19.8402C244.112 15.7442 243.003 12.5868 240.784 10.3681C238.566 8.14949 235.664 6.61349 232.08 5.76015C228.496 4.90682 224.656 4.48015 220.56 4.48015C220.475 4.48015 220.39 4.48015 220.304 4.48015C220.219 4.48015 220.134 4.48015 220.048 4.48015C217.147 10.1975 214.502 16.4268 212.112 23.1682C209.723 29.8242 207.462 36.6935 205.328 43.7762ZM271.17 98.1762C268.354 98.1762 265.922 97.2375 263.874 95.3602C261.741 93.4828 260.674 90.6668 260.674 86.9122C260.674 83.9255 261.357 80.6828 262.722 77.1842C264.088 73.6855 265.965 70.2295 268.354 66.8162C270.744 63.4028 273.474 60.3308 276.546 57.6002C279.618 54.7842 282.904 52.5228 286.402 50.8162C289.901 49.1095 293.4 48.2562 296.898 48.2562C300.568 48.2562 303.682 49.1948 306.242 51.0722C308.802 52.9495 310.082 55.4242 310.082 58.4962C310.082 60.8002 309.272 62.4642 307.65 63.4882C306.029 64.5122 304.109 64.8108 301.89 64.3842C302.061 63.6162 302.189 62.8482 302.274 62.0802C302.445 61.3122 302.53 60.5015 302.53 59.6482C302.53 57.9415 302.189 56.4055 301.506 55.0402C300.824 53.6748 299.373 52.9922 297.154 52.9922C294.765 52.9922 292.333 53.8028 289.858 55.4242C287.384 57.0455 284.994 59.1788 282.69 61.8242C280.472 64.3842 278.466 67.2428 276.674 70.4002C274.882 73.4722 273.474 76.5015 272.45 79.4882C271.426 82.4748 270.914 85.1628 270.914 87.5522C270.914 90.2828 271.896 91.6482 273.858 91.6482C275.821 91.6482 277.997 90.7095 280.386 88.8322C282.776 86.8695 285.165 84.4375 287.554 81.5362C290.029 78.6348 292.376 75.6908 294.594 72.7042C296.813 69.6322 298.733 67.0295 300.354 64.8962C300.61 64.4695 300.952 64.2562 301.378 64.2562C301.72 64.3415 302.36 64.5548 303.298 64.8962C304.322 65.1522 305.261 65.5788 306.114 66.1762C306.968 66.7735 307.394 67.5415 307.394 68.4802C307.394 69.3335 307.01 70.4428 306.242 71.8082C305.56 73.0882 304.706 74.5388 303.682 76.1602C302.744 77.6962 301.89 79.2748 301.122 80.8962C300.44 82.4322 300.098 83.9255 300.098 85.3762C300.098 86.4855 300.397 87.5522 300.994 88.5762C301.592 89.5148 302.573 89.9842 303.938 89.9842C305.986 89.9842 308.845 88.4908 312.514 85.5042C316.269 82.4322 320.066 77.2695 323.906 70.0162L326.338 72.4482C324.29 77.0562 321.816 81.1522 318.914 84.7362C316.098 88.2348 313.112 90.9655 309.954 92.9282C306.797 94.9762 303.597 96.0002 300.354 96.0002C296.856 96.0002 294.253 94.8908 292.546 92.6722C290.84 90.4535 289.901 88.0642 289.73 85.5042C289.73 85.3335 289.73 85.2055 289.73 85.1202C289.73 85.0348 289.73 84.9495 289.73 84.8642C286.317 88.9602 283.16 92.2028 280.258 94.5922C277.442 96.9815 274.413 98.1762 271.17 98.1762ZM349.677 95.4882C346.52 95.4882 343.96 94.6348 341.997 92.9282C340.035 91.3068 339.053 89.0882 339.053 86.2722C339.053 83.8828 339.651 81.3228 340.845 78.5922C342.04 75.8615 343.235 73.1735 344.429 70.5282C345.709 67.8828 346.349 65.5362 346.349 63.4882C346.349 61.5255 345.709 59.9042 344.429 58.6242C343.149 57.2588 341.656 56.1495 339.949 55.2962C338.072 59.9895 335.939 64.5548 333.549 68.9922C331.245 73.3442 329.368 76.7575 327.917 79.2322L325.997 75.5202C327.192 73.3015 328.771 70.1442 330.733 66.0482C332.696 61.9522 334.573 57.3868 336.365 52.3522C335.512 51.4988 335.085 50.3468 335.085 48.8962C335.085 46.6775 335.768 44.5868 337.133 42.6242C338.499 40.6615 339.821 39.6802 341.101 39.6802C342.125 39.6802 342.851 40.2775 343.277 41.4722C343.789 42.5815 344.045 43.3495 344.045 43.7762C344.045 44.2028 343.832 44.9708 343.405 46.0802C343.064 47.1895 342.808 48.0002 342.637 48.5122C342.723 49.4508 343.448 50.3895 344.813 51.3282C346.264 52.1815 347.885 53.2055 349.677 54.4002C351.469 55.5948 353.048 57.0882 354.413 58.8802C355.779 60.6722 356.461 62.9335 356.461 65.6642C356.461 68.1388 355.907 70.6562 354.797 73.2162C353.688 75.7762 352.579 78.1655 351.469 80.3842C350.36 82.6028 349.805 84.5228 349.805 86.1442C349.805 87.3388 350.104 88.1495 350.701 88.5762C351.384 88.9175 352.152 89.0882 353.005 89.0882C355.053 89.0882 357.187 88.4908 359.405 87.2962C361.624 86.0162 363.8 84.3948 365.933 82.4322C368.067 80.4695 369.944 78.4215 371.565 76.2882C373.187 74.0695 374.424 72.0642 375.277 70.2722L378.349 72.5762C376.728 76.2455 374.381 79.8722 371.309 83.4562C368.237 86.9548 364.824 89.8562 361.069 92.1602C357.315 94.3788 353.517 95.4882 349.677 95.4882ZM420.753 94.7202C417.425 94.7202 414.865 93.8668 413.073 92.1602C411.367 90.5388 410.513 88.4482 410.513 85.8882C410.513 84.1815 410.812 82.3895 411.409 80.5122C412.007 78.5495 412.604 76.5868 413.201 74.6242C413.799 72.6615 414.097 70.7842 414.097 68.9922C414.097 67.1148 413.628 65.8348 412.689 65.1522C411.836 64.3842 410.812 64.0002 409.617 64.0002C407.057 64.0002 404.412 65.0668 401.681 67.2002C399.036 69.2482 396.433 71.8508 393.873 75.0082C391.399 78.1655 389.052 81.4508 386.833 84.8642C384.615 88.2775 382.695 91.3495 381.073 94.0802C379.452 94.0802 377.916 93.7815 376.465 93.1842C375.015 92.6722 373.777 91.7335 372.753 90.3682C372.839 89.9415 373.351 88.6615 374.289 86.5282C375.143 84.3095 376.124 81.7068 377.233 78.7202C378.343 75.6482 379.324 72.4482 380.177 69.1202C381.031 65.7922 381.457 62.7628 381.457 60.0322C382.055 59.3495 382.951 58.6668 384.145 57.9842C385.425 57.3015 386.748 56.9602 388.113 56.9602C391.1 56.9602 392.593 58.2402 392.593 60.8002C392.593 61.8242 392.38 63.3602 391.953 65.4082C391.612 67.3708 391.1 69.6322 390.417 72.1922C392.636 69.2055 395.068 66.3895 397.713 63.7442C400.359 61.0988 403.089 58.9655 405.905 57.3442C408.807 55.6375 411.708 54.7842 414.609 54.7842C418.279 54.7842 420.967 56.0215 422.673 58.4962C424.465 60.9708 425.361 63.7015 425.361 66.6882C425.361 69.2482 424.935 71.6375 424.081 73.8562C423.228 76.0748 422.375 78.1655 421.521 80.1282C420.753 82.0908 420.369 84.0108 420.369 85.8882C420.369 87.2535 420.668 88.2348 421.265 88.8322C421.948 89.3442 422.673 89.6002 423.441 89.6002C425.489 89.6002 427.623 88.6188 429.841 86.6562C432.06 84.6935 434.151 82.2188 436.113 79.2322C438.161 76.1602 439.953 73.0882 441.489 70.0162L443.665 71.8082C441.873 75.9895 439.825 79.8295 437.521 83.3282C435.303 86.7415 432.785 89.5148 429.969 91.6482C427.239 93.6962 424.167 94.7202 420.753 94.7202Z" fill="#4B2E2B"/>
</svg>
